<svg xmlns="http://www.w3.org/2000/svg" viewBox="0 0 121.75 91.97"><path fill="#fff" d="M42.03 39.58c-3.93 0-7.12 3.24-7.12 7.24v45.14h4.53V46.82c0-1.46 1.16-2.64 2.6-2.64s2.6 1.18 2.6 2.64v45.14h4.53V46.82c0-4-3.19-7.24-7.12-7.24h-.03Zm37.68 0c-3.93 0-7.12 3.24-7.12 7.24v45.14h4.53V46.82c0-1.46 1.17-2.64 2.6-2.64s2.6 1.18 2.6 2.64v45.14h4.53V46.82c0-4-3.19-7.24-7.12-7.24zm-18.83 0c-3.94 0-7.12 3.24-7.12 7.24v45.14h4.53V46.82c0-1.46 1.17-2.64 2.6-2.64s2.6 1.18 2.6 2.64v45.14h4.54V46.82c0-4-3.19-7.24-7.12-7.24h-.02Z"/><path fill="#fff" d="m105.04 20.81 3.14-5.54h7.29L121.76 0H0l6.29 15.27h7.29l3.12 5.54c-6.09 2.12-11.1 7.5-11.1 15.6s5.76 14.97 14.39 14.97c1.89 0 3.64-.4 5.2-1.1v41.68h4.52V46.6c1.42-1.96 2.26-4.4 2.32-7.16 0-.04.01-.09.01-.14 0-.04-.01-.06-.01-.1 0-.03.01-.05.01-.07 0-.04-.01-.08-.01-.12-.05-1.87-.54-3.61-1.4-5.09h60.5c-.86 1.48-1.35 3.22-1.4 5.09 0 .05-.01.09-.01.12v.17s.01.1.01.14c.06 2.76.89 5.21 2.32 7.16v45.36h4.52V50.28c1.63.73 3.41 1.1 5.2 1.1 8.62 0 14.39-7.16 14.39-14.97s-5.03-13.49-11.12-15.6M9.3 10.66 6.8 4.61h108.15l-2.5 6.05zm93.65 4.61-2.51 4.45H21.31l-2.51-4.45zm-1.19 31.51c-4.43 0-7.46-3.04-7.51-7.51.02-3.16 2.03-5.28 4.95-5.32h.09c1.83 0 3.32 1.53 3.32 3.14v.08c-.04.93-.77 1.66-1.69 1.66-1.25 0-2.27 1.03-2.27 2.3s1.02 2.3 2.27 2.3c3.43 0 6.24-2.83 6.24-6.34 0-.11-.03-.22-.04-.32-.18-4.12-3.5-7.41-7.89-7.41H60.57l-.31-.01H22.53c-4.39.01-7.71 3.3-7.89 7.42-.01.1-.04.21-.04.32 0 3.51 2.81 6.34 6.24 6.34 1.25 0 2.27-1.03 2.27-2.3s-1.02-2.3-2.27-2.3c-.92 0-1.66-.72-1.7-1.66 0-.03.01-.05.01-.08 0-1.61 1.48-3.14 3.32-3.14h.07c2.93.04 4.94 2.15 4.96 5.32-.05 4.47-3.1 7.51-7.51 7.51-5.81 0-9.85-4.77-9.85-10.36 0-7.55 5.82-12.1 13.02-12.1h75.45c7.19 0 13.02 4.56 13.02 12.1 0 5.59-4.04 10.36-9.85 10.36"/></svg>