<svg xmlns="http://www.w3.org/2000/svg" viewBox="0 0 24 24">
  <title>DuckDuckGo</title>
  <circle cx="12" cy="12" r="12" fill="#DE5833"/>
  <g transform="scale(0.1875)">
    <path fill="#fff" d="M73 111.75c0-.5.123-.614-1.467-3.782-4.224-8.459-8.469-20.384-6.538-28.075.352-1.397-3.979-51.744-7.04-53.365-3.403-1.813-7.59-4.69-11.419-5.33-1.943-.31-4.49-.164-6.482.105-.354.047-.368.684-.03.798 1.307.443 2.895 1.212 3.83 2.375.178.22-.06.566-.342.577-.882.032-2.482.402-4.593 2.195-.244.207-.042.592.273.53 4.536-.897 9.17-.455 11.9 2.027.177.16.084.45-.147.512-23.694 6.44-19.004 27.05-12.696 52.344 5.619 22.53 7.733 29.792 8.4 32.004a.718.718 0 0 0 .423.467C55.228 118.38 73 118.524 73 113z"/>
    <path fill="#14307e" d="M75.5 59c-3.5 0-6.5-3-6.5-6.5s3-6.5 6.5-6.5 6.5 3 6.5 6.5-3 6.5-6.5 6.5z"/>
  </g>
</svg>
